<?xml version="1.0" standalone="no"?><!DOCTYPE svg PUBLIC "-//W3C//DTD SVG 1.1//EN" "http://www.w3.org/Graphics/SVG/1.1/DTD/svg11.dtd"><svg t="1634798979321" class="icon" viewBox="0 0 1024 1024" version="1.1" xmlns="http://www.w3.org/2000/svg" p-id="1383" xmlns:xlink="http://www.w3.org/1999/xlink" width="128" height="128"><defs><style type="text/css"></style></defs><path d="M642.72 159.296a187.872 187.872 0 0 1 89.92 163.776H298.368a186.24 186.24 0 0 1 88.256-163.776l-47.52-44.544a13.856 13.856 0 0 1 0-23.84 17.312 17.312 0 0 1 25.44 0l54.24 50.88a211.52 211.52 0 0 1 96.704-22.208 207.872 207.872 0 0 1 94.976 22.208l54.272-50.848a17.312 17.312 0 0 1 25.44 0 14.912 14.912 0 0 1 0 23.84l-47.488 44.512zM442.56 221.344h-35.584V256.32h35.584V221.344z m181.504 0H588.48V256.32h35.584V221.344z m236.576 151.84a53.984 53.984 0 0 0-38.176-15.104 53.696 53.696 0 0 0-38.176 15.104c-10.24 9.056-16.128 22.08-16.096 35.776v236.896a46.72 46.72 0 0 0 16.096 36.576 58.112 58.112 0 0 0 76.352 0 46.72 46.72 0 0 0 16.096-36.576V408.96a47.232 47.232 0 0 0-16.096-35.776zM208.544 358.08c14.208-0.192 27.904 5.248 38.144 15.104 10.304 9.024 16.192 22.08 16.096 35.776v236.896c0.384 13.984-5.504 27.424-16.096 36.576a55.552 55.552 0 0 1-38.144 14.304 55.552 55.552 0 0 1-38.176-14.304 46.752 46.752 0 0 1-16.096-36.576V408.96a47.552 47.552 0 0 1 16.096-35.776c10.24-9.92 23.968-15.328 38.176-15.104z m89.856 0h434.24v338.656a31.296 31.296 0 0 1-10.208 23.84c-6.88 6.4-16 9.856-25.408 9.536h-37.312v119.264a46.72 46.72 0 0 1-16.096 36.576 58.016 58.016 0 0 1-76.352 0 46.72 46.72 0 0 1-16.096-36.576v-119.264h-71.264v119.264a46.72 46.72 0 0 1-16.096 36.576 58.016 58.016 0 0 1-76.32 0 46.72 46.72 0 0 1-16.096-36.576v-119.264H334.08c-9.408 0.32-18.56-3.136-25.44-9.536a31.296 31.296 0 0 1-10.176-23.84h-0.064V358.08z" p-id="1384"></path></svg>