<?xml version="1.0" standalone="no"?><!DOCTYPE svg PUBLIC "-//W3C//DTD SVG 1.1//EN" "http://www.w3.org/Graphics/SVG/1.1/DTD/svg11.dtd"><svg t="1634798983740" class="icon" viewBox="0 0 1024 1024" version="1.1" xmlns="http://www.w3.org/2000/svg" p-id="1513" xmlns:xlink="http://www.w3.org/1999/xlink" width="128" height="128"><defs><style type="text/css"></style></defs><path d="M510.72 323.552h8.256c39.392 0 81.728-19.904 111.136-52.64 30.56-34.56 45.888-78.464 41.184-118.24l-1.184-7.616-8.224 0.608c-40 1.728-88.224 24.544-117.056 55.584-24.672 26.336-48.8 70.208-42.336 114.688l1.184 7.04 7.04 0.576zM277.824 787.072c27.072 36.832 68.224 91.84 122.912 91.84h2.944c22.656-0.576 39.36-7.104 55.264-13.344l1.792-0.704 2.656-1.024c17.376-6.72 35.232-13.6 63.232-13.6 27.616 0 45.856 7.04 62.912 14.08h0.032c17.664 7.008 35.264 14.016 61.728 13.44 56.448-0.608 91.136-47.424 121.728-88.96a395.2 395.2 0 0 0 52.928-100.672l2.944-8.192-7.648-3.52h-0.576c-9.408-3.52-94.08-38.624-95.264-132.832-0.64-74.88 58.24-114.72 76.448-125.216l8.832-5.28-5.312-7.616c-45.856-62.048-115.84-71.392-144.064-72.576-36.992-3.424-72.256 9.472-100.8 19.904l-1.536 0.576c-17.664 6.464-32.352 11.712-42.368 11.712-10.56 0-25.344-5.248-40.864-10.752l-2.656-0.96c-24.096-9.344-51.168-19.296-80.576-18.72a195.712 195.712 0 0 0-162.88 91.328c-65.28 105.312-24.096 264.512 48.192 361.088z" p-id="1514"></path></svg>