<?xml version="1.0" standalone="no"?><!DOCTYPE svg PUBLIC "-//W3C//DTD SVG 1.1//EN" "http://www.w3.org/Graphics/SVG/1.1/DTD/svg11.dtd"><svg t="1634692126518" class="icon" viewBox="0 0 3962 1024" version="1.1" xmlns="http://www.w3.org/2000/svg" p-id="1054" xmlns:xlink="http://www.w3.org/1999/xlink" width="495.25" height="128"><defs><style type="text/css"></style></defs><path d="M597.036522 628.513391a128.801391 128.801391 0 1 1-147.767652-211.033043 128.801391 128.801391 0 0 1 147.767652 211.033043z m388.786087-73.638956a61.395478 61.395478 0 0 0-48.528696 10.551652l-0.044522 0.022261c-1.202087 0.823652-2.404174 1.580522-3.606261 2.270609l-1.780869 1.068521-1.78087 0.957218c-1.179826 0.667826-2.359652 1.246609-3.539478 1.825391-1.179826 0.623304-2.337391 1.157565-3.494956 1.714087a155.247304 155.247304 0 0 1-66.02574 13.846261 56.07513 56.07513 0 0 1-12.332521-1.580522 49.018435 49.018435 0 0 1-11.686957-4.674783 101.821217 101.821217 0 0 1-10.729739-6.945391 274.18713 274.18713 0 0 1-90.735304-268.933565l0.445217-1.558261a105.293913 105.293913 0 0 1 4.585739-12.488348 49.218783 49.218783 0 0 1 15.426783-19.433739 153.911652 153.911652 0 0 1 46.747826-24.776348c4.563478-1.491478 9.305043-2.80487 14.313739-3.873391 1.26887-0.26713 2.537739-0.534261 3.82887-0.75687 1.29113-0.222609 2.582261-0.489739 3.940173-0.667826l2.003479-0.289391 2.048-0.222609c1.380174-0.178087 2.80487-0.289391 4.296348-0.378434h-0.044522a61.595826 61.595826 0 1 0-62.241391-55.073392c0.111304 1.469217 0.178087 2.893913 0.178086 4.274087v2.070261l-0.044521 2.025739c0 1.357913-0.111304 2.671304-0.178087 3.984696a144.473043 144.473043 0 0 1-2.404174 18.565565 155.247304 155.247304 0 0 1-18.877218 49.41913c-2.203826 3.561739-4.674783 6.90087-7.546434 9.883827-2.871652 2.960696-6.188522 5.565217-9.883826 7.791304a103.713391 103.713391 0 0 1-11.865044 6.032696c-1.602783 0.734609-3.250087 1.424696-4.897391 2.137043a274.209391 274.209391 0 0 1-271.36-55.919304l-2.871652-3.027479c-3.072-3.33913-6.032696-6.678261-8.548174-10.217739a49.218783 49.218783 0 0 1-9.126957-23.062261 154.178783 154.178783 0 0 1 5.743305-67.227826c0.400696-1.224348 0.801391-2.448696 1.246608-3.695304 0.445217-1.224348 0.890435-2.448696 1.402435-3.717565l0.734609-1.892174 0.823652-1.892174c0.556522-1.29113 1.179826-2.582261 1.847652-3.895652h-0.022261a61.595826 61.595826 0 1 0-78.803478 26.37913c1.335652 0.667826 2.582261 1.313391 3.784348 2.003478l1.780869 1.00174 1.736348 1.068521c1.179826 0.690087 2.248348 1.424696 3.339131 2.137044 1.135304 0.712348 2.181565 1.469217 3.250087 2.203826a154.846609 154.846609 0 0 1 45.011478 50.265043 48.929391 48.929391 0 0 1 6.611478 23.908174c0.089043 4.296348-0.24487 8.770783-0.712348 13.289739l-0.467478 4.140522a274.209391 274.209391 0 0 1-183.54087 208.050087l-4.608 1.113044a105.071304 105.071304 0 0 1-13.133913 2.31513 49.107478 49.107478 0 0 1-24.531478-3.650783 154.35687 154.35687 0 0 1-57.900522-41.516521c-0.868174-1.001739-1.714087-1.981217-2.537739-3.072l-1.268869-1.558261-1.246609-1.691826a68.006957 68.006957 0 0 1-2.448696-3.517218v0.022261a61.595826 61.595826 0 1 0-16.584347 81.452522l0.044521-0.044522c1.202087-0.801391 2.404174-1.558261 3.584-2.248348l1.78087-1.068521 1.780869-0.957218c1.202087-0.667826 2.381913-1.246609 3.56174-1.847652 1.157565-0.601043 2.337391-1.135304 3.494956-1.691826a154.980174 154.980174 0 0 1 66.025739-13.846261c4.185043 0.111304 8.325565 0.578783 12.332522 1.580522 4.006957 1.001739 7.902609 2.582261 11.686956 4.674782 3.784348 2.048 7.479652 4.563478 11.130435 7.234783a274.18713 274.18713 0 0 1 91.046957 267.731478l-0.779131 2.626783c-1.335652 4.318609-2.760348 8.570435-4.541217 12.510609a49.196522 49.196522 0 0 1-15.449044 19.433739 154.089739 154.089739 0 0 1-61.061565 28.649739c-1.26887 0.26713-2.537739 0.534261-3.828869 0.756869-1.29113 0.222609-2.582261 0.467478-3.917913 0.667827l-2.003479 0.289391-2.070261 0.222609a66.80487 66.80487 0 0 1-4.274086 0.356173v0.022261a61.595826 61.595826 0 1 0 62.241391 55.095653v-0.044522a66.916174 66.916174 0 0 1-0.155826-4.251826v-2.092522l0.044521-2.003478c0-1.380174 0.111304-2.671304 0.178087-4.006957 0.044522-1.313391 0.155826-2.582261 0.267131-3.873391a155.024696 155.024696 0 0 1 21.014261-64.111304c2.203826-3.561739 4.674783-6.90087 7.546435-9.861566 2.871652-2.982957 6.188522-5.565217 9.883826-7.791304 3.673043-2.270609 7.724522-4.207304 11.865043-6.054957l2.982957-1.313391a274.18713 274.18713 0 0 1 280.308869 61.796174c1.513739 1.78087 2.960696 3.561739 4.274087 5.409391a49.330087 49.330087 0 0 1 9.104696 23.084522 154.178783 154.178783 0 0 1-5.721044 67.227826c-0.400696 1.224348-0.801391 2.448696-1.268869 3.695305-0.445217 1.224348-0.868174 2.448696-1.380174 3.717565l-0.75687 1.892174-0.823652 1.892174a65.179826 65.179826 0 0 1-1.825391 3.895652h0.022261a61.595826 61.595826 0 1 0 78.803478-26.35687v-0.044522a64.556522 64.556522 0 0 1-3.784348-1.981217l-1.80313-1.024-1.736348-1.046261c-1.157565-0.690087-2.226087-1.424696-3.339131-2.137043-1.113043-0.712348-2.181565-1.469217-3.227826-2.203826a154.935652 154.935652 0 0 1-45.011478-50.265044 49.062957 49.062957 0 0 1-6.611478-23.908174c-0.089043-3.940174 0.200348-8.013913 0.601043-12.109913a274.18713 274.18713 0 0 1 189.573565-213.77113c4.051478-0.890435 8.058435-1.691826 11.976348-2.070261a49.285565 49.285565 0 0 1 24.553739 3.650782 153.911652 153.911652 0 0 1 44.833392 28.13774c3.561739 3.183304 7.078957 6.633739 10.50713 10.440347 0.868174 0.957217 1.736348 1.914435 2.56 2.938435 0.845913 1.001739 1.714087 1.981217 2.537739 3.072l1.26887 1.558261 1.224348 1.691826c0.845913 1.113043 1.647304 2.29287 2.448695 3.539478v-0.044521a61.595826 61.595826 0 1 0 65.113044-92.004174z" fill="#04C36C" p-id="1055"></path><path d="M1897.73913 273.051826V689.196522c0 14.269217-0.957217 26.045217-2.893913 35.305739-1.558261 9.638957-5.008696 17.563826-10.418087 23.730087-5.409391 6.166261-13.312 10.796522-23.730087 13.890782-10.017391 3.094261-23.351652 5.209043-39.936 6.366609l-38.778434 2.893913-18.521044-57.878261 36.463305-2.31513c17.363478-1.157565 28.738783-4.452174 34.148173-9.839304 5.409391-5.787826 8.102957-15.248696 8.102957-28.360348v-21.414957l-34.148174 27.781565a1571.238957 1571.238957 0 0 0-22.572522-48.038956c-8.481391-17.363478-17.363478-35.305739-26.624-53.826783a1046.238609 1046.238609 0 0 1-34.726956 64.823652 1837.32313 1837.32313 0 0 1-38.778435 62.508522l-43.408696-31.254261a1336.787478 1336.787478 0 0 0 86.817392-153.377391 1127.023304 1127.023304 0 0 0-29.517913-54.405565c-9.260522-16.584348-17.363478-30.875826-24.30887-42.829913a1010.95513 1010.95513 0 0 1-36.463304 89.711304 1845.426087 1845.426087 0 0 1 23.730087 49.196522c7.724522 15.805217 14.669913 30.497391 20.836174 43.987478l-42.829913 33.569391c-4.229565-10.017391-8.882087-20.635826-13.890783-31.833043a14604.466087 14604.466087 0 0 0-15.62713-34.726957 1199.749565 1199.749565 0 0 1-70.032696 123.280696l-31.833044-23.730087v92.605217h-55.56313v-491.965217H1897.73913z m-111.12626 245.982609c10.017391 18.921739 19.878957 37.821217 29.517913 56.720695 9.638957 18.521043 18.320696 36.062609 26.045217 52.669218V326.299826H1508.797217V648.681739c13.133913-20.457739 25.84487-41.850435 38.199653-64.244869a1509.420522 1509.420522 0 0 0 35.884521-70.611479 1654.828522 1654.828522 0 0 0-33.569391-68.87513 1183.855304 1183.855304 0 0 0-29.517913-54.984348l41.093565-26.624c6.566957 11.197217 13.890783 24.709565 21.993739 40.514783 8.481391 15.805217 17.363478 32.790261 26.624 50.932869 6.945391-16.584348 13.512348-33.391304 19.678609-50.354087 6.566957-16.985043 12.53287-34.148174 17.942261-51.511652l46.302609 17.942261-17.363479 49.775304 38.778435-27.781565c5.787826 9.638957 11.954087 20.257391 18.521044 31.833044 6.945391 11.575652 14.09113 24.108522 21.414956 37.620869 7.346087-17.363478 14.09113-34.526609 20.257391-51.511652 6.166261-17.363478 11.954087-34.726957 17.363479-52.090435l45.145043 17.942261a1112.33113 1112.33113 0 0 1-23.151304 71.769044 1336.008348 1336.008348 0 0 1-27.781565 70.611478zM2336.857043 453.053217c7.346087 55.56313 25.288348 105.73913 53.826783 150.483479 28.93913 44.744348 65.981217 85.860174 111.126261 123.280695l-44.566261 47.460174a541.384348 541.384348 0 0 1-83.923478-91.447652 477.562435 477.562435 0 0 1-59.035826-109.389913 445.885217 445.885217 0 0 1-50.93287 107.074783c-21.593043 33.947826-49.374609 65.981217-83.344695 96.077913l-28.360348-34.148174v26.624h-56.141913v-182.316522c-7.702261 6.945391-16.205913 14.469565-25.466435 22.572522l-27.781565 23.151304c-8.859826 7.346087-17.14087 14.269217-24.887653 20.836174-7.323826 6.166261-13.111652 10.99687-17.363478 14.469565l-26.624-60.193391c5.030957-3.472696 12.55513-8.882087 22.572522-16.205913a2175.488 2175.488 0 0 0 67.717565-54.405565c11.976348-10.017391 22.572522-19.099826 31.833044-27.202783v-38.778435l-43.987479 20.836174a702.063304 702.063304 0 0 0-13.890782-38.778435 955.63687 955.63687 0 0 0-17.363478-41.672347 2059.50887 2059.50887 0 0 0-18.521044-40.514783 1026.159304 1026.159304 0 0 0-17.363478-35.305739l49.775304-22.572522c4.630261 9.260522 9.46087 19.678609 14.469565 31.254261 5.409391 11.575652 10.818783 23.529739 16.205913 35.884522 5.409391 12.354783 10.618435 25.088 15.627131 38.199652 5.409391 12.733217 10.418087 25.266087 15.048348 37.620869v-208.361739l56.141913 2.315131v465.92a588.8 588.8 0 0 0 57.299478-61.929739c15.827478-20.057043 28.761043-40.514783 38.778435-61.350957 10.418087-21.214609 18.142609-43.030261 23.151304-65.402435 5.409391-22.77287 9.082435-47.460174 10.99687-74.084174h-112.283826V396.911304h113.441391v-150.483478l55.56313 2.315131v148.168347h144.11687v56.141913h-145.853218z m89.711305-64.823652a233.338435 233.338435 0 0 0-13.890783-20.836174 507.102609 507.102609 0 0 0-19.099826-27.202782 512.734609 512.734609 0 0 0-20.836174-26.045218 284.204522 284.204522 0 0 0-18.521043-20.836174l39.357217-35.305739c5.409391 5.008696 11.575652 11.575652 18.521044 19.678609 6.945391 8.102957 13.890783 16.584348 20.836174 25.466435 7.346087 8.882087 14.09113 17.563826 20.257391 26.045217 6.188522 8.481391 10.99687 15.62713 14.469565 21.414957l-41.093565 37.620869zM2650.401391 341.926957a698.924522 698.924522 0 0 1-31.833043 48.038956 493.078261 493.078261 0 0 1-32.990609 42.25113l-46.881391-35.884521a581.453913 581.453913 0 0 0 30.096695-35.305739c10.017391-13.133913 19.277913-26.624 27.781566-40.514783 8.859826-13.890783 16.962783-27.781565 24.308869-41.672348 7.323826-13.890783 13.490087-27.002435 18.521044-39.357217l56.720695 12.154435a665.822609 665.822609 0 0 1-19.099826 41.672347h126.174609v48.61774h-86.817391c5.38713 8.882087 10.796522 17.942261 16.205913 27.202782 5.787826 9.260522 10.217739 17.16313 13.312 23.730087l-43.408696 28.939131c-2.715826-5.409391-5.988174-11.575652-9.839304-18.521044a1201.641739 1201.641739 0 0 0-10.99687-21.414956 376.208696 376.208696 0 0 0-10.996869-21.414957c-3.873391-6.945391-7.346087-13.133913-10.418087-18.521043h-9.839305z m317.751652 339.166608c0.75687-4.229565 1.335652-8.102957 1.736348-11.575652 0.378435-3.85113 0.75687-7.346087 1.157566-10.418087l54.984347 19.678609c0 3.094261-0.400696 6.566957-1.157565 10.418087a177.730783 177.730783 0 0 1-2.31513 13.890782c-2.31513 11.575652-5.209043 21.036522-8.681739 28.360348a46.525217 46.525217 0 0 1-14.469566 18.521044c-6.188522 4.630261-14.09113 7.902609-23.730087 9.839304-9.661217 2.31513-21.615304 3.85113-35.884521 4.630261a1178.713043 1178.713043 0 0 1-127.910957 0 195.784348 195.784348 0 0 1-33.569391-4.630261 54.583652 54.583652 0 0 1-23.151305-11.575652c-5.787826-5.409391-10.24-12.733217-13.312-21.993739-3.094261-8.882087-4.630261-20.457739-4.63026-34.726957v-35.305739l-195.04974 10.418087-1.157565-50.93287 196.207305-9.839304v-41.672348l-154.534957 7.524174-1.736348-48.617739 156.271305-8.102956v-40.514783c-28.182261 2.31513-55.56313 4.452174-82.187131 6.366609-26.245565 1.558261-50.93287 2.893913-74.084174 4.051478l-5.787826-46.881391c36.262957-1.936696 75.419826-4.452174 117.49287-7.524174 42.429217-3.094261 84.502261-6.745043 126.174608-10.99687l-48.038956-24.887652a552.247652 552.247652 0 0 0 47.460174-77.55687 720.361739 720.361739 0 0 0 32.990609-77.556869l52.669217 14.469565-15.627131 39.357217h155.11374v48.61774h-93.184c4.630261 7.724522 9.060174 15.248696 13.312 22.572521 4.229565 6.945391 7.702261 13.133913 10.418087 18.521044l-34.726957 23.151304c10.017391-1.558261 19.678609-2.893913 28.93913-4.051478 9.260522-1.157565 18.120348-2.515478 26.624-4.051478l10.418087 46.881391c-26.624 4.229565-58.278957 8.481391-94.920347 12.733217-36.663652 4.229565-75.241739 8.303304-115.756522 12.154435v42.25113l196.207304-9.839304 1.736348 49.775304-197.943652 9.260522v41.672348l255.821913-12.733217 0.578783 49.775304-256.400696 13.312v26.045217c0 6.945391 0.378435 12.53287 1.157565 16.784696 1.157565 4.229565 2.893913 7.524174 5.209044 9.839304 2.693565 2.31513 6.166261 4.051478 10.418087 5.209044 4.630261 1.157565 10.418087 1.936696 17.363478 2.31513 32.790261 2.31513 65.580522 2.31513 98.393043 0 8.859826-0.378435 15.62713-1.157565 20.257392-2.31513 5.008696-1.157565 8.859826-2.893913 11.575652-5.209044a19.144348 19.144348 0 0 0 5.787826-9.260521c1.157565-3.85113 2.31513-9.060174 3.472695-15.627131z m-100.708173-339.166608a1308.894609 1308.894609 0 0 1-20.257392 39.936c-6.945391 12.733217-14.469565 25.088-22.572521 37.042086 18.521043-1.936696 36.262957-3.85113 53.248-5.787826 17.363478-1.936696 34.148174-3.85113 50.354086-5.787826a1685.593043 1685.593043 0 0 1-16.784695-31.833043 1346.381913 1346.381913 0 0 0-17.363478-33.569391h-26.624zM3217.430261 399.805217c-3.85113-7.346087-9.260522-16.027826-16.205913-26.045217-6.544696-10.017391-13.690435-20.257391-21.414957-30.675478a601.84487 601.84487 0 0 0-22.572521-30.096696 303.616 303.616 0 0 0-19.678609-23.730087l39.936-35.305739c6.188522 5.787826 12.933565 12.911304 20.257391 21.414957 7.724522 8.481391 15.449043 17.363478 23.151305 26.624 7.724522 9.260522 15.048348 18.69913 21.993739 28.360347 7.346087 9.260522 13.712696 17.942261 19.099826 26.045218l-44.566261 43.408695z m390.678261 226.882783c-0.378435 11.197217-0.957217 21.036522-1.736348 29.517913a248.653913 248.653913 0 0 1-3.472696 24.887652 375.162435 375.162435 0 0 1-9.260521 39.357218c-3.072 10.017391-7.524174 17.942261-13.312 23.730087-5.38713 5.787826-12.733217 9.839304-21.99374 12.154434-8.859826 2.31513-20.435478 3.85113-34.726956 4.630261-44.744348 2.31513-89.889391 2.31513-135.435131 0-15.048348-0.77913-27.781565-2.515478-38.199652-5.209043-10.017391-2.31513-18.120348-6.745043-24.308869-13.312-5.787826-6.166261-10.017391-14.669913-12.733218-25.466435-2.31513-10.418087-3.472696-24.108522-3.472695-41.093565v-219.937392h203.152695v-119.229217h-211.834434v-59.614609h269.133913v237.30087h-203.152696v144.116869c0 9.260522 0.578783 16.584348 1.736348 21.99374 1.157565 5.409391 3.294609 9.638957 6.366608 12.733217 3.094261 2.693565 7.346087 4.630261 12.733218 5.787826 5.787826 0.77913 13.133913 1.558261 21.993739 2.315131 31.254261 2.31513 61.929739 2.31513 92.026435 0 8.102957-0.378435 14.870261-0.957217 20.257391-1.736348 5.409391-1.157565 9.661217-2.893913 12.733217-5.209044 3.094261-2.693565 5.609739-6.566957 7.524174-11.575652 1.936696-5.008696 3.472696-12.154435 4.630261-21.414956 1.157565-8.481391 2.137043-17.16313 2.893913-26.045218 0.77913-9.260522 1.357913-18.320696 1.736348-27.202782l56.720696 18.521043z m-303.86087 41.672348c-2.693565 1.936696-8.481391 6.366609-17.363478 13.312-8.859826 6.566957-18.69913 14.269217-29.517913 23.151304l-32.990609 27.202783a532.702609 532.702609 0 0 0-27.781565 25.466435l-36.463304-44.566261c7.346087-4.630261 11.575652-9.638957 12.733217-15.048348 1.157565-5.409391 1.736348-12.154435 1.736348-20.257391v-194.470957h-64.823652v-59.035826h121.544347v232.091826l57.299479-46.881391 15.62713 59.035826z" fill="#000000" p-id="1056"></path></svg>