<?xml version="1.0" standalone="no"?><!DOCTYPE svg PUBLIC "-//W3C//DTD SVG 1.1//EN" "http://www.w3.org/Graphics/SVG/1.1/DTD/svg11.dtd"><svg t="1634798973234" class="icon" viewBox="0 0 1024 1024" version="1.1" xmlns="http://www.w3.org/2000/svg" p-id="1253" xmlns:xlink="http://www.w3.org/1999/xlink" width="128" height="128"><defs><style type="text/css"></style></defs><path d="M579.933659 622.217366a125.652293 125.652293 0 1 1-144.15922-205.873951 125.652293 125.652293 0 0 1 144.15922 205.873951m379.304585-71.829854a59.916488 59.916488 0 0 0-47.353756 10.289951l-0.024976 0.024976a62.23922 62.23922 0 0 1-3.496585 2.222829l-1.748293 0.999025-1.748293 0.974048c-1.148878 0.649366-2.297756 1.198829-3.446634 1.773269-1.148878 0.599415-2.27278 1.123902-3.421658 1.673366a151.527024 151.527024 0 0 1-64.437073 13.511804 47.753366 47.753366 0 0 1-23.427122-6.094048 98.70361 98.70361 0 0 1-10.464781-6.793366 267.48878 267.48878 0 0 1-88.488585-262.368781l0.424585-1.498536c1.323707-4.245854 2.697366-8.391805 4.445659-12.238049a47.953171 47.953171 0 0 1 15.060292-18.931512 150.403122 150.403122 0 0 1 59.591805-27.972683c1.223805-0.249756 2.44761-0.499512 3.746342-0.724293 1.24878-0.22478 2.497561-0.474537 3.821268-0.649366l1.948098-0.274731 1.998048-0.249756c1.348683-0.149854 2.747317-0.249756 4.195903-0.324683l-0.024976-0.024976a60.091317 60.091317 0 1 0-60.715707-53.747512v0.049951c0.099902 1.42361 0.149854 2.797268 0.149854 4.145951v2.023025l-0.024976 1.998048c0 1.298732-0.124878 2.572488-0.174829 3.846244-0.049951 1.298732-0.174829 2.547512-0.274732 3.796293a151.127415 151.127415 0 0 1-20.504976 62.538927 54.696585 54.696585 0 0 1-7.367805 9.640585 47.528585 47.528585 0 0 1-9.615609 7.617561 101.276098 101.276098 0 0 1-11.588683 5.894244l-4.745366 2.072976A267.538732 267.538732 0 0 1 426.733268 239.016585l-2.797268-2.947122a102.79961 102.79961 0 0 1-8.366829-9.965268 48.028098 48.028098 0 0 1-8.866342-22.503024 150.278244 150.278244 0 0 1 5.569561-65.585951c0.39961-1.173854 0.774244-2.372683 1.248781-3.596488 0.424585-1.198829 0.824195-2.397659 1.348683-3.646439l0.724292-1.82322 0.79922-1.873171c0.524488-1.24878 1.123902-2.497561 1.798244-3.771317h-0.024976a60.091317 60.091317 0 1 0-76.874927 25.724878c1.273756 0.649366 2.497561 1.273756 3.671415 1.948098l1.748293 0.999024 1.698341 1.024c1.148878 0.674341 2.197854 1.398634 3.271805 2.097952 1.098927 0.699317 2.122927 1.42361 3.146927 2.122926a151.352195 151.352195 0 0 1 43.907122 49.027122 47.828293 47.828293 0 0 1 6.443707 23.32722c0.099902 4.245854-0.22478 8.59161-0.674341 12.987317l-0.474537 4.046049A267.513756 267.513756 0 0 1 225.030244 449.560976c-1.498537 0.374634-2.997073 0.749268-4.49561 1.073951-4.32078 0.999024-8.616585 1.848195-12.787512 2.247805a47.90322 47.90322 0 0 1-23.95161-3.546537 150.028488 150.028488 0 0 1-43.757268-27.423219 140.06322 140.06322 0 0 1-12.737561-13.062244c-0.824195-0.999024-1.673366-1.948098-2.497561-2.997073l-1.223805-1.548488-1.198829-1.623415a66.185366 66.185366 0 0 1-2.372683-3.446634v0.024976a60.091317 60.091317 0 1 0-16.184195 79.447414c1.198829-0.79922 2.372683-1.548488 3.521561-2.247805l1.748292-0.999024 1.748293-0.949073c1.148878-0.649366 2.297756-1.198829 3.446634-1.798244a141.262049 141.262049 0 0 1 16.858537-7.018146 151.252293 151.252293 0 0 1 50.975219-8.142049 47.803317 47.803317 0 0 1 23.427122 6.094049c3.69639 1.998049 7.292878 4.470634 10.864391 7.068097a267.48878 267.48878 0 0 1 88.813268 261.194927l-0.749268 2.572488c-1.298732 4.220878-2.697366 8.366829-4.445659 12.188097a48.152976 48.152976 0 0 1-15.060293 18.981464 150.278244 150.278244 0 0 1-59.566829 27.947707l-3.746341 0.724293c-1.24878 0.22478-2.497561 0.474537-3.821269 0.649366l-1.948097 0.274731-1.998049 0.249756c-1.373659 0.149854-2.747317 0.249756-4.195902 0.324683v0.024976a60.091317 60.091317 0 1 0 60.715707 53.747512v-0.049951a66.33522 66.33522 0 0 1-0.149854-4.145951v-1.998049l0.049951-1.998049c0-1.323707 0.099902-2.597463 0.17483-3.871219 0.049951-1.298732 0.149854-2.547512 0.249756-3.796293a151.32722 151.32722 0 0 1 20.504975-62.538927c2.147902-3.496585 4.545561-6.743415 7.367805-9.640585 2.797268-2.897171 6.044098-5.419707 9.640586-7.617561 3.596488-2.197854 7.542634-4.071024 11.563707-5.894244l2.922146-1.248781a267.48878 267.48878 0 0 1 273.482927 60.266147c1.473561 1.748293 2.872195 3.496585 4.170927 5.294829a48.053073 48.053073 0 0 1 8.866341 22.503024 150.028488 150.028488 0 0 1-1.87317 51.59961c-0.974049 4.570537-2.172878 9.240976-3.696391 13.986342-0.39961 1.198829-0.774244 2.397659-1.24878 3.596487-0.424585 1.198829-0.824195 2.397659-1.348683 3.646439l-0.724293 1.82322-0.799219 1.873171c-0.524488 1.24878-1.148878 2.497561-1.798244 3.771317h0.024976a60.091317 60.091317 0 1 0 76.899902-25.724878h-0.024976c-1.298732-0.62439-2.497561-1.273756-3.671414-1.948098l-1.748293-0.999024-1.698341-1.024c-1.148878-0.674341-2.197854-1.398634-3.271805-2.097952-1.098927-0.699317-2.122927-1.42361-3.146927-2.122926a151.027512 151.027512 0 0 1-43.907122-49.027122 47.928195 47.928195 0 0 1-6.443707-23.32722 96.730537 96.730537 0 0 1 0.574439-11.838439 267.48878 267.48878 0 0 1 184.94439-208.546341 96.905366 96.905366 0 0 1 11.688585-1.998049 48.003122 48.003122 0 0 1 23.95161 3.546536 150.228293 150.228293 0 0 1 53.997268 37.613269c0.849171 0.924098 1.673366 1.873171 2.497561 2.872195 0.824195 0.999024 1.673366 1.923122 2.497561 2.997073l1.198829 1.548488 1.223805 1.623415c0.79922 1.073951 1.598439 2.247805 2.372683 3.446634v-0.049952a60.091317 60.091317 0 1 0 63.537952-89.762341" fill="#04C36C" p-id="1254"></path></svg>